<?xml version="1.0" encoding="UTF-8" standalone="no"?>
<!-- Created with Inkscape (http://www.inkscape.org/) -->

<svg
   xmlns:dc="http://purl.org/dc/elements/1.1/"
   xmlns:cc="http://creativecommons.org/ns#"
   xmlns:rdf="http://www.w3.org/1999/02/22-rdf-syntax-ns#"
   xmlns:svg="http://www.w3.org/2000/svg"
   xmlns="http://www.w3.org/2000/svg"
   xmlns:sodipodi="http://sodipodi.sourceforge.net/DTD/sodipodi-0.dtd"
   xmlns:inkscape="http://www.inkscape.org/namespaces/inkscape"
   width="210mm"
   height="297mm"
   viewBox="0 0 744.09448819 1052.3622047"
   id="svg4158"
   version="1.1"
   inkscape:version="0.91 r13725"
   sodipodi:docname="AngleCorrection.svg">
  <defs
     id="defs4160">
    <marker
       inkscape:isstock="true"
       style="overflow:visible"
       id="marker7466"
       refX="0.0"
       refY="0.0"
       orient="auto"
       inkscape:stockid="Arrow1Mstart">
      <path
         transform="scale(0.4) translate(10,0)"
         style="fill-rule:evenodd;stroke:#000000;stroke-width:1pt;stroke-opacity:1;fill:#000000;fill-opacity:1"
         d="M 0.0,0.0 L 5.0,-5.0 L -12.5,0.0 L 5.0,5.0 L 0.0,0.0 z "
         id="path7468" />
    </marker>
    <marker
       inkscape:isstock="true"
       style="overflow:visible"
       id="marker6649"
       refX="0.0"
       refY="0.0"
       orient="auto"
       inkscape:stockid="Arrow1Mstart">
      <path
         transform="scale(0.4) translate(10,0)"
         style="fill-rule:evenodd;stroke:#000000;stroke-width:1pt;stroke-opacity:1;fill:#000000;fill-opacity:1"
         d="M 0.0,0.0 L 5.0,-5.0 L -12.5,0.0 L 5.0,5.0 L 0.0,0.0 z "
         id="path6651" />
    </marker>
    <marker
       inkscape:isstock="true"
       style="overflow:visible;"
       id="marker6516"
       refX="0.0"
       refY="0.0"
       orient="auto"
       inkscape:stockid="Arrow1Mend">
      <path
         transform="scale(0.4) rotate(180) translate(10,0)"
         style="fill-rule:evenodd;stroke:#000000;stroke-width:1pt;stroke-opacity:1;fill:#000000;fill-opacity:1"
         d="M 0.0,0.0 L 5.0,-5.0 L -12.5,0.0 L 5.0,5.0 L 0.0,0.0 z "
         id="path6518" />
    </marker>
    <marker
       inkscape:isstock="true"
       style="overflow:visible;"
       id="marker6370"
       refX="0.0"
       refY="0.0"
       orient="auto"
       inkscape:stockid="Arrow1Mend">
      <path
         transform="scale(0.4) rotate(180) translate(10,0)"
         style="fill-rule:evenodd;stroke:#000000;stroke-width:1pt;stroke-opacity:1;fill:#000000;fill-opacity:1"
         d="M 0.0,0.0 L 5.0,-5.0 L -12.5,0.0 L 5.0,5.0 L 0.0,0.0 z "
         id="path6372" />
    </marker>
    <marker
       inkscape:stockid="Arrow1Mend"
       orient="auto"
       refY="0.0"
       refX="0.0"
       id="marker6126"
       style="overflow:visible;"
       inkscape:isstock="true">
      <path
         id="path6128"
         d="M 0.0,0.0 L 5.0,-5.0 L -12.5,0.0 L 5.0,5.0 L 0.0,0.0 z "
         style="fill-rule:evenodd;stroke:#000000;stroke-width:1pt;stroke-opacity:1;fill:#000000;fill-opacity:1"
         transform="scale(0.4) rotate(180) translate(10,0)" />
    </marker>
    <marker
       inkscape:stockid="Arrow1Mend"
       orient="auto"
       refY="0.0"
       refX="0.0"
       id="marker5690"
       style="overflow:visible;"
       inkscape:isstock="true"
       inkscape:collect="always">
      <path
         id="path5692"
         d="M 0.0,0.0 L 5.0,-5.0 L -12.5,0.0 L 5.0,5.0 L 0.0,0.0 z "
         style="fill-rule:evenodd;stroke:#000000;stroke-width:1pt;stroke-opacity:1;fill:#000000;fill-opacity:1"
         transform="scale(0.4) rotate(180) translate(10,0)" />
    </marker>
    <marker
       inkscape:stockid="Arrow1Mend"
       orient="auto"
       refY="0.0"
       refX="0.0"
       id="Arrow1Mend"
       style="overflow:visible;"
       inkscape:isstock="true"
       inkscape:collect="always">
      <path
         id="path4264"
         d="M 0.0,0.0 L 5.0,-5.0 L -12.5,0.0 L 5.0,5.0 L 0.0,0.0 z "
         style="fill-rule:evenodd;stroke:#000000;stroke-width:1pt;stroke-opacity:1;fill:#000000;fill-opacity:1"
         transform="scale(0.4) rotate(180) translate(10,0)" />
    </marker>
    <marker
       inkscape:isstock="true"
       style="overflow:visible;"
       id="marker5456"
       refX="0.0"
       refY="0.0"
       orient="auto"
       inkscape:stockid="Arrow1Lend">
      <path
         transform="scale(0.8) rotate(180) translate(12.5,0)"
         style="fill-rule:evenodd;stroke:#000000;stroke-width:1pt;stroke-opacity:1;fill:#000000;fill-opacity:1"
         d="M 0.0,0.0 L 5.0,-5.0 L -12.5,0.0 L 5.0,5.0 L 0.0,0.0 z "
         id="path5458" />
    </marker>
    <marker
       inkscape:stockid="Arrow1Mstart"
       orient="auto"
       refY="0.0"
       refX="0.0"
       id="marker5327"
       style="overflow:visible"
       inkscape:isstock="true"
       inkscape:collect="always">
      <path
         id="path5329"
         d="M 0.0,0.0 L 5.0,-5.0 L -12.5,0.0 L 5.0,5.0 L 0.0,0.0 z "
         style="fill-rule:evenodd;stroke:#000000;stroke-width:1pt;stroke-opacity:1;fill:#000000;fill-opacity:1"
         transform="scale(0.4) translate(10,0)" />
    </marker>
    <inkscape:path-effect
       effect="powerstroke"
       id="path-effect5303"
       is_visible="true"
       offset_points="0,0.5"
       sort_points="true"
       interpolator_type="CubicBezierJohan"
       interpolator_beta="0.2"
       start_linecap_type="zerowidth"
       linejoin_type="round"
       miter_limit="4"
       end_linecap_type="zerowidth"
       cusp_linecap_type="round" />
    <inkscape:path-effect
       effect="powerstroke"
       id="path-effect5299"
       is_visible="true"
       offset_points="0,0.5"
       sort_points="true"
       interpolator_type="CubicBezierJohan"
       interpolator_beta="0.2"
       start_linecap_type="zerowidth"
       linejoin_type="round"
       miter_limit="4"
       end_linecap_type="zerowidth"
       cusp_linecap_type="round" />
    <inkscape:path-effect
       effect="powerstroke"
       id="path-effect5295"
       is_visible="true"
       offset_points="0,0.5"
       sort_points="true"
       interpolator_type="CubicBezierJohan"
       interpolator_beta="0.2"
       start_linecap_type="zerowidth"
       linejoin_type="round"
       miter_limit="4"
       end_linecap_type="zerowidth"
       cusp_linecap_type="round" />
    <inkscape:path-effect
       effect="powerstroke"
       id="path-effect5276"
       is_visible="true"
       offset_points="0,0.5"
       sort_points="true"
       interpolator_type="CubicBezierJohan"
       interpolator_beta="0.2"
       start_linecap_type="zerowidth"
       linejoin_type="round"
       miter_limit="4"
       end_linecap_type="zerowidth"
       cusp_linecap_type="round" />
    <inkscape:path-effect
       effect="powerstroke"
       id="path-effect5272"
       is_visible="true"
       offset_points="0,0.5"
       sort_points="true"
       interpolator_type="CubicBezierJohan"
       interpolator_beta="0.2"
       start_linecap_type="zerowidth"
       linejoin_type="round"
       miter_limit="4"
       end_linecap_type="zerowidth"
       cusp_linecap_type="round" />
    <inkscape:path-effect
       effect="powerstroke"
       id="path-effect5268"
       is_visible="true"
       offset_points="0,0.5"
       sort_points="true"
       interpolator_type="CubicBezierJohan"
       interpolator_beta="0.2"
       start_linecap_type="zerowidth"
       linejoin_type="round"
       miter_limit="4"
       end_linecap_type="zerowidth"
       cusp_linecap_type="round" />
    <marker
       inkscape:isstock="true"
       style="overflow:visible;"
       id="marker5142"
       refX="0.0"
       refY="0.0"
       orient="auto"
       inkscape:stockid="Arrow1Lend">
      <path
         transform="scale(0.8) rotate(180) translate(12.5,0)"
         style="fill-rule:evenodd;stroke:#000000;stroke-width:1pt;stroke-opacity:1;fill:#000000;fill-opacity:1"
         d="M 0.0,0.0 L 5.0,-5.0 L -12.5,0.0 L 5.0,5.0 L 0.0,0.0 z "
         id="path5144" />
    </marker>
    <marker
       inkscape:stockid="Arrow2Lstart"
       orient="auto"
       refY="0.0"
       refX="0.0"
       id="marker5003"
       style="overflow:visible"
       inkscape:isstock="true">
      <path
         id="path5005"
         style="fill-rule:evenodd;stroke-width:0.625;stroke-linejoin:round;stroke:none;stroke-opacity:1;fill:#000000;fill-opacity:1"
         d="M 8.7185878,4.0337352 L -2.2072895,0.016013256 L 8.7185884,-4.0017078 C 6.9730900,-1.6296469 6.9831476,1.6157441 8.7185878,4.0337352 z "
         transform="scale(1.1) translate(1,0)" />
    </marker>
    <marker
       style="overflow:visible"
       inkscape:stockid="InfiniteLineEnd"
       id="InfiniteLineEnd"
       refX="0"
       refY="0"
       orient="auto"
       inkscape:isstock="true">
      <g
         id="g4490"
         style="fill:#000000;stroke:none;stroke-opacity:1;fill-opacity:1">
        <circle
           id="circle4492"
           r="0.8"
           cy="0"
           cx="3"
           style="stroke:none;stroke-opacity:1;fill:#000000;fill-opacity:1" />
        <circle
           id="circle4494"
           r="0.8"
           cy="0"
           cx="6.5"
           style="stroke:none;stroke-opacity:1;fill:#000000;fill-opacity:1" />
        <circle
           id="circle4496"
           r="0.8"
           cy="0"
           cx="10"
           style="stroke:none;stroke-opacity:1;fill:#000000;fill-opacity:1" />
      </g>
    </marker>
    <marker
       inkscape:stockid="Arrow1Mstart"
       orient="auto"
       refY="0.0"
       refX="0.0"
       id="marker4817"
       style="overflow:visible"
       inkscape:isstock="true">
      <path
         id="path4819"
         d="M 0.0,0.0 L 5.0,-5.0 L -12.5,0.0 L 5.0,5.0 L 0.0,0.0 z "
         style="fill-rule:evenodd;stroke:none;stroke-width:1pt;stroke-opacity:1;fill:#000000;fill-opacity:1"
         transform="scale(0.4) translate(10,0)" />
    </marker>
    <marker
       inkscape:stockid="StopM"
       orient="auto"
       refY="0.0"
       refX="0.0"
       id="StopM"
       style="overflow:visible"
       inkscape:isstock="true">
      <path
         id="path4427"
         d="M 0.0,5.65 L 0.0,-5.65"
         style="fill:#000000;fill-opacity:1;fill-rule:evenodd;stroke:none;stroke-width:1pt;stroke-opacity:1"
         transform="scale(0.4)" />
    </marker>
    <inkscape:path-effect
       effect="powerstroke"
       id="path-effect4747"
       is_visible="true"
       offset_points="0,0.5"
       sort_points="true"
       interpolator_type="CubicBezierJohan"
       interpolator_beta="0.2"
       start_linecap_type="zerowidth"
       linejoin_type="round"
       miter_limit="4"
       end_linecap_type="zerowidth"
       cusp_linecap_type="round" />
    <marker
       inkscape:stockid="Arrow1Mstart"
       orient="auto"
       refY="0.0"
       refX="0.0"
       id="Arrow1Mstart"
       style="overflow:visible"
       inkscape:isstock="true">
      <path
         id="path4261"
         d="M 0.0,0.0 L 5.0,-5.0 L -12.5,0.0 L 5.0,5.0 L 0.0,0.0 z "
         style="fill-rule:evenodd;stroke:#000000;stroke-width:1pt;stroke-opacity:1;fill:#000000;fill-opacity:1"
         transform="scale(0.4) translate(10,0)" />
    </marker>
    <marker
       inkscape:stockid="Arrow2Lend"
       orient="auto"
       refY="0.0"
       refX="0.0"
       id="marker4615"
       style="overflow:visible;"
       inkscape:isstock="true">
      <path
         id="path4617"
         style="fill-rule:evenodd;stroke-width:0.625;stroke-linejoin:round;stroke:none;stroke-opacity:1;fill:#000000;fill-opacity:1"
         d="M 8.7185878,4.0337352 L -2.2072895,0.016013256 L 8.7185884,-4.0017078 C 6.9730900,-1.6296469 6.9831476,1.6157441 8.7185878,4.0337352 z "
         transform="scale(1.1) rotate(180) translate(1,0)" />
    </marker>
    <inkscape:path-effect
       effect="powerstroke"
       id="path-effect4613"
       is_visible="true"
       offset_points="0,0.5"
       sort_points="true"
       interpolator_type="CubicBezierJohan"
       interpolator_beta="0.2"
       start_linecap_type="zerowidth"
       linejoin_type="round"
       miter_limit="4"
       end_linecap_type="zerowidth"
       cusp_linecap_type="round" />
    <marker
       inkscape:stockid="Arrow2Lstart"
       orient="auto"
       refY="0.0"
       refX="0.0"
       id="Arrow2Lstart"
       style="overflow:visible"
       inkscape:isstock="true">
      <path
         id="path4273"
         style="fill-rule:evenodd;stroke-width:0.625;stroke-linejoin:round;stroke:#000000;stroke-opacity:1;fill:#000000;fill-opacity:1"
         d="M 8.7185878,4.0337352 L -2.2072895,0.016013256 L 8.7185884,-4.0017078 C 6.9730900,-1.6296469 6.9831476,1.6157441 8.7185878,4.0337352 z "
         transform="scale(1.1) translate(1,0)" />
    </marker>
    <marker
       inkscape:stockid="Arrow2Lend"
       orient="auto"
       refY="0.0"
       refX="0.0"
       id="Arrow2Lend"
       style="overflow:visible;"
       inkscape:isstock="true">
      <path
         id="path4276"
         style="fill-rule:evenodd;stroke-width:0.625;stroke-linejoin:round;stroke:none;stroke-opacity:1;fill:#000000;fill-opacity:1"
         d="M 8.7185878,4.0337352 L -2.2072895,0.016013256 L 8.7185884,-4.0017078 C 6.9730900,-1.6296469 6.9831476,1.6157441 8.7185878,4.0337352 z "
         transform="scale(1.1) rotate(180) translate(1,0)" />
    </marker>
    <inkscape:path-effect
       effect="powerstroke"
       id="path-effect4249"
       is_visible="true"
       offset_points="0,0.5"
       sort_points="true"
       interpolator_type="CubicBezierJohan"
       interpolator_beta="0.2"
       start_linecap_type="zerowidth"
       linejoin_type="round"
       miter_limit="4"
       end_linecap_type="zerowidth"
       cusp_linecap_type="round" />
    <inkscape:path-effect
       effect="powerstroke"
       id="path-effect4245"
       is_visible="true"
       offset_points="0,0.5"
       sort_points="true"
       interpolator_type="CubicBezierJohan"
       interpolator_beta="0.2"
       start_linecap_type="zerowidth"
       linejoin_type="round"
       miter_limit="4"
       end_linecap_type="zerowidth"
       cusp_linecap_type="round" />
    <inkscape:path-effect
       effect="powerstroke"
       id="path-effect4185"
       is_visible="true"
       offset_points="0,0.5"
       sort_points="true"
       interpolator_type="CubicBezierJohan"
       interpolator_beta="0.2"
       start_linecap_type="zerowidth"
       linejoin_type="round"
       miter_limit="4"
       end_linecap_type="zerowidth"
       cusp_linecap_type="round" />
    <inkscape:path-effect
       effect="powerstroke"
       id="path-effect4512"
       is_visible="true"
       offset_points="0,0.5"
       sort_points="true"
       interpolator_type="CubicBezierJohan"
       interpolator_beta="0.2"
       start_linecap_type="zerowidth"
       linejoin_type="round"
       miter_limit="4"
       end_linecap_type="zerowidth"
       cusp_linecap_type="round" />
    <inkscape:path-effect
       effect="powerstroke"
       id="path-effect4508"
       is_visible="true"
       offset_points="0,0.5"
       sort_points="true"
       interpolator_type="CubicBezierJohan"
       interpolator_beta="0.2"
       start_linecap_type="zerowidth"
       linejoin_type="round"
       miter_limit="4"
       end_linecap_type="zerowidth"
       cusp_linecap_type="round" />
    <inkscape:path-effect
       effect="powerstroke"
       id="path-effect4504"
       is_visible="true"
       offset_points="0,0.5"
       sort_points="true"
       interpolator_type="CubicBezierJohan"
       interpolator_beta="0.2"
       start_linecap_type="zerowidth"
       linejoin_type="round"
       miter_limit="4"
       end_linecap_type="zerowidth"
       cusp_linecap_type="round" />
    <inkscape:path-effect
       effect="powerstroke"
       id="path-effect4500"
       is_visible="true"
       offset_points="0,0.5"
       sort_points="true"
       interpolator_type="CubicBezierJohan"
       interpolator_beta="0.2"
       start_linecap_type="zerowidth"
       linejoin_type="round"
       miter_limit="4"
       end_linecap_type="zerowidth"
       cusp_linecap_type="round" />
    <inkscape:perspective
       sodipodi:type="inkscape:persp3d"
       inkscape:vp_x="0 : 526.1811 : 1"
       inkscape:vp_y="0 : 1000 : 0"
       inkscape:vp_z="744.09449 : 526.1811 : 1"
       inkscape:persp3d-origin="372.04724 : 350.7874 : 1"
       id="perspective4478" />
    <marker
       inkscape:isstock="true"
       style="overflow:visible;"
       id="marker7072"
       refX="0.0"
       refY="0.0"
       orient="auto"
       inkscape:stockid="Arrow1Lend">
      <path
         transform="scale(0.8) rotate(180) translate(12.5,0)"
         style="fill-rule:evenodd;stroke:#000000;stroke-width:1pt;stroke-opacity:1;fill:#000000;fill-opacity:1"
         d="M 0.0,0.0 L 5.0,-5.0 L -12.5,0.0 L 5.0,5.0 L 0.0,0.0 z "
         id="path7074" />
    </marker>
    <marker
       inkscape:isstock="true"
       style="overflow:visible"
       id="marker7020"
       refX="0.0"
       refY="0.0"
       orient="auto"
       inkscape:stockid="Arrow1Lstart">
      <path
         transform="scale(0.8) translate(12.5,0)"
         style="fill-rule:evenodd;stroke:#000000;stroke-width:1pt;stroke-opacity:1;fill:#000000;fill-opacity:1"
         d="M 0.0,0.0 L 5.0,-5.0 L -12.5,0.0 L 5.0,5.0 L 0.0,0.0 z "
         id="path7022" />
    </marker>
  </defs>
  <sodipodi:namedview
     id="base"
     pagecolor="#ffffff"
     bordercolor="#666666"
     borderopacity="1.0"
     inkscape:pageopacity="0.0"
     inkscape:pageshadow="2"
     inkscape:zoom="2.8"
     inkscape:cx="411.61739"
     inkscape:cy="691.38114"
     inkscape:document-units="px"
     inkscape:current-layer="layer1"
     showgrid="false"
     inkscape:snap-bbox="true"
     inkscape:bbox-nodes="true"
     inkscape:snap-bbox-edge-midpoints="false"
     inkscape:snap-intersection-paths="true"
     inkscape:object-nodes="true"
     inkscape:snap-smooth-nodes="true"
     inkscape:snap-global="false"
     inkscape:snap-object-midpoints="true"
     inkscape:window-width="1920"
     inkscape:window-height="1005"
     inkscape:window-x="-9"
     inkscape:window-y="-9"
     inkscape:window-maximized="1" />
  <metadata
     id="metadata4163">
    <rdf:RDF>
      <cc:Work
         rdf:about="">
        <dc:format>image/svg+xml</dc:format>
        <dc:type
           rdf:resource="http://purl.org/dc/dcmitype/StillImage" />
        <dc:title />
      </cc:Work>
    </rdf:RDF>
  </metadata>
  <g
     inkscape:label="Layer 1"
     inkscape:groupmode="layer"
     id="layer1">
    <g
       id="g4170"
       transform="matrix(0,0.59605908,1.0003525,0,-17.967993,132.81311)">
      <path
         inkscape:connector-curvature="0"
         id="path4166"
         d="m 283.57143,229.50506 77.14286,312.14286"
         style="fill:none;fill-rule:evenodd;stroke:#000000;stroke-width:1px;stroke-linecap:butt;stroke-linejoin:miter;stroke-opacity:1" />
      <path
         style="fill:none;fill-rule:evenodd;stroke:#000000;stroke-width:1px;stroke-linecap:butt;stroke-linejoin:miter;stroke-opacity:1"
         d="M 437.85715,229.50506 360.71429,541.64792"
         id="path4168"
         inkscape:connector-curvature="0" />
    </g>
    <path
       inkscape:connector-curvature="0"
       id="path4176"
       d="M 370.35742,342.88595 523.71685,385.7332"
       style="fill:none;fill-rule:evenodd;stroke:#d80000;stroke-width:0.2916086px;stroke-linecap:butt;stroke-linejoin:miter;stroke-opacity:1" />
    <path
       inkscape:connector-curvature="0"
       id="path4720"
       d="m 523.91458,347.82931 c -0.22572,37.03788 -0.22572,37.03788 -0.22572,37.03788"
       style="fill:none;fill-rule:evenodd;stroke:#000000;stroke-width:0.65346998px;stroke-linecap:butt;stroke-linejoin:miter;stroke-opacity:1;marker-start:url(#Arrow1Mstart);marker-end:url(#marker6126)" />
    <text
       transform="matrix(0,-1.01973,0.98065174,0,0,0)"
       sodipodi:linespacing="125%"
       id="text5700"
       y="532.52917"
       x="-370.60791"
       style="font-style:normal;font-weight:normal;font-size:6.22722626px;line-height:125%;font-family:sans-serif;letter-spacing:0px;word-spacing:0px;fill:#000000;fill-opacity:1;stroke:none;stroke-width:1px;stroke-linecap:butt;stroke-linejoin:miter;stroke-opacity:1"
       xml:space="preserve"><tspan
         y="532.52917"
         x="-370.60791"
         id="tspan5702"
         sodipodi:role="line">baseline</tspan></text>
    <path
       sodipodi:type="star"
       style="fill:#00ff00;fill-opacity:0.05490196;stroke:#00ff00;stroke-width:1.17693937;stroke-miterlimit:4;stroke-dasharray:1.17693937, 4.70775747;stroke-dashoffset:0;stroke-opacity:1"
       id="path10644"
       sodipodi:sides="3"
       sodipodi:cx="594.47479"
       sodipodi:cy="328.58789"
       sodipodi:r1="134.35883"
       sodipodi:r2="67.179413"
       sodipodi:arg1="1.5707963"
       sodipodi:arg2="2.6179939"
       inkscape:flatsided="true"
       inkscape:rounded="0"
       inkscape:randomized="0"
       d="m 594.4748,462.94672 -116.35817,-201.53824 232.71632,-10e-6 z"
       transform="matrix(0,0.39517315,1.5041849,0,-185.36283,112.80984)"
       inkscape:transform-center-y="50.5251" />
    <circle
       style="fill:#000000;fill-opacity:0.5;stroke:#241c1c;stroke-width:1.17700005;stroke-miterlimit:4;stroke-dasharray:none;stroke-dashoffset:0;stroke-opacity:1"
       id="path10646"
       cx="235.09831"
       cy="258.73297"
       r="155.05841"
       transform="matrix(0,1,1,0,0,0)" />
    <text
       xml:space="preserve"
       style="font-style:normal;font-weight:normal;font-size:8.45729542px;line-height:125%;font-family:sans-serif;letter-spacing:0px;word-spacing:0px;fill:#000000;fill-opacity:1;stroke:none;stroke-width:1px;stroke-linecap:butt;stroke-linejoin:miter;stroke-opacity:1"
       x="520.34393"
       y="349.84079"
       id="text4472"
       sodipodi:linespacing="125%"
       transform="scale(1.0140684,0.98612674)"><tspan
         sodipodi:role="line"
         id="tspan4474"
         x="520.34393"
         y="349.84079">camera </tspan><tspan
         sodipodi:role="line"
         x="520.34393"
         y="368.59079"
         id="tspan4476">center</tspan></text>
    <path
       style="fill:none;fill-rule:evenodd;stroke:none;stroke-width:1px;stroke-linecap:butt;stroke-linejoin:miter;stroke-opacity:1"
       d="M 227.18735,-162.3608 840.44692,-41.633 227.38129,-163.34182 Z"
       id="path4510"
       inkscape:path-effect="#path-effect4512"
       inkscape:original-d="M 227.28432,-162.85131 840.44692,-41.633"
       inkscape:connector-curvature="0" />
    <path
       style="fill:none;fill-rule:evenodd;stroke:#000000;stroke-width:0.78020549px;stroke-linecap:butt;stroke-linejoin:miter;stroke-opacity:1;marker-start:url(#marker5327)"
       d="m 493.35925,347.82014 30.51161,0"
       id="path5307"
       inkscape:connector-curvature="0" />
    <path
       style="fill:none;fill-rule:evenodd;stroke:#000000;stroke-width:0.78020549px;stroke-linecap:butt;stroke-linejoin:miter;stroke-opacity:1"
       d="m 523.87086,347.82014 15.40093,-15.40093"
       id="path5309"
       inkscape:connector-curvature="0" />
    <path
       style="fill:none;fill-rule:evenodd;stroke:#000000;stroke-width:0.78020549px;stroke-linecap:butt;stroke-linejoin:miter;stroke-opacity:1;marker-end:url(#marker5690)"
       d="m 523.87086,347.82014 0,-30.06095"
       id="path5313"
       inkscape:connector-curvature="0" />
    <path
       inkscape:connector-curvature="0"
       id="path5436"
       d="m 523.87086,347.82014 15.40093,-15.40093"
       style="fill:none;fill-rule:evenodd;stroke:#000000;stroke-width:0.78020549px;stroke-linecap:butt;stroke-linejoin:miter;stroke-opacity:1;marker-end:url(#Arrow1Mend)" />
    <text
       xml:space="preserve"
       style="font-style:normal;font-weight:normal;font-size:11.70308208px;line-height:125%;font-family:sans-serif;letter-spacing:0px;word-spacing:0px;fill:#000000;fill-opacity:1;stroke:none;stroke-width:1px;stroke-linecap:butt;stroke-linejoin:miter;stroke-opacity:1"
       x="539.27179"
       y="332.41922"
       id="text5817"
       sodipodi:linespacing="125%"><tspan
         sodipodi:role="line"
         id="tspan5819"
         x="539.27179"
         y="332.41922">x'</tspan></text>
    <text
       xml:space="preserve"
       style="font-style:normal;font-weight:normal;font-size:11.70308208px;line-height:125%;font-family:sans-serif;letter-spacing:0px;word-spacing:0px;fill:#000000;fill-opacity:1;stroke:none;stroke-width:1px;stroke-linecap:butt;stroke-linejoin:miter;stroke-opacity:1"
       x="523.72516"
       y="313.12897"
       id="text5821"
       sodipodi:linespacing="125%"><tspan
         sodipodi:role="line"
         id="tspan5823"
         x="523.72516"
         y="313.12897">y'</tspan></text>
    <text
       xml:space="preserve"
       style="font-style:normal;font-weight:normal;font-size:11.70308208px;line-height:125%;font-family:sans-serif;letter-spacing:0px;word-spacing:0px;fill:#000000;fill-opacity:1;stroke:none;stroke-width:1px;stroke-linecap:butt;stroke-linejoin:miter;stroke-opacity:1"
       x="492.79114"
       y="341.89557"
       id="text5825"
       sodipodi:linespacing="125%"><tspan
         sodipodi:role="line"
         id="tspan5827"
         x="492.79114"
         y="341.89557">z'</tspan></text>
    <flowRoot
       xml:space="preserve"
       id="flowRoot5829"
       style="fill:black;stroke:none;stroke-opacity:1;stroke-width:1px;stroke-linejoin:miter;stroke-linecap:butt;fill-opacity:1;font-family:sans-serif;font-style:normal;font-weight:normal;font-size:15px;line-height:125%;letter-spacing:0px;word-spacing:0px"><flowRegion
         id="flowRegion5831"><rect
           id="rect5833"
           width="101.77287"
           height="72.478447"
           x="448.50772"
           y="85.89875" /></flowRegion><flowPara
         id="flowPara5835"></flowPara></flowRoot>    <path
       inkscape:connector-curvature="0"
       id="path5875"
       d="m 364.09852,336.38228 c -0.2476,0.0682 -0.54521,-0.0512 -0.79738,0 -0.12986,0.0263 -0.22286,0.0974 -0.34173,0.13864 -0.14743,0.0513 -0.31238,0.0832 -0.45564,0.13863 -0.72951,0.28252 -0.66454,0.26577 -1.1391,0.55457 -0.18987,0.11554 -0.37971,0.23107 -0.56957,0.3466 -0.22782,0.13865 -0.50094,0.25436 -0.68348,0.41593 -0.3012,0.26662 -0.64785,0.76337 -0.79737,1.10913 -0.12892,0.29813 -0.23183,0.60022 -0.34174,0.90116 -0.0419,0.11501 -0.10317,0.22897 -0.1139,0.3466 -0.0274,0.29993 0,0.60078 0,0.90117 0,0.46214 0,0.92427 0,1.38641"
       style="fill:none;fill-rule:evenodd;stroke:#000000;stroke-width:1.89800012;stroke-linecap:butt;stroke-linejoin:miter;stroke-miterlimit:4;stroke-dasharray:none;stroke-opacity:1" />
    <path
       inkscape:connector-curvature="0"
       id="path5877"
       d="m 354.9725,340.50111 c -0.0741,-0.0792 -0.16095,-0.15177 -0.22221,-0.23778 -0.0389,-0.0543 -0.0552,-0.11746 -0.0741,-0.17831 -0.0553,-0.17724 -0.10848,-0.3551 -0.14804,-0.53502 -0.0346,-0.15728 -0.0659,-0.31594 -0.0741,-0.47556 -0.0248,-0.49499 0,-0.99075 0,-1.48612 0,-0.49516 -0.0312,-0.71565 0.0741,-1.1889 0.0355,-0.16097 0.11049,-0.31496 0.14804,-0.47558 0.0367,-0.15694 0.0352,-0.31889 0.0741,-0.47555 0.0352,-0.1414 0.10463,-0.27617 0.14806,-0.4161 0.0553,-0.17724 0.10327,-0.35587 0.14804,-0.53501 0.18336,-0.73575 -0.0652,-0.0734 0.22224,-0.53502 0.0349,-0.056 0.0279,-0.12734 0.0741,-0.17832 0.16348,-0.18347 0.30501,-0.24244 0.5184,-0.35668 0.0741,-0.0396 0.14034,-0.0908 0.22224,-0.11881 0.0936,-0.0321 0.2011,-0.0308 0.29632,-0.0595 0.10344,-0.0311 0.19027,-0.0945 0.29629,-0.11881 0.0714,-0.0168 0.14938,0.0116 0.22224,0 0.054,-0.008 0.0941,-0.0507 0.14804,-0.0594 0.0724,-0.0116 0.14805,0 0.22223,0 0.0741,0 0.14804,0 0.22222,0 0.14905,0 0.24123,-0.0182 0.37028,0.0594 0.22474,0.13522 0.31127,0.34799 0.44435,0.535 0.0441,0.0621 0.1083,0.11447 0.14804,0.17833 0.0349,0.056 0.0495,0.11897 0.0741,0.17834 0.0248,0.0595 0.0632,0.1163 0.0741,0.17834 0.0134,0.0785 0,0.15846 0,0.23778 0,0.0215 0.0134,0.31502 0,0.35666 -0.0134,0.043 -0.0411,0.0835 -0.0741,0.11882 -0.17364,0.18577 -0.11519,0.0761 -0.3703,0.17832 -0.42975,0.17247 6.1e-4,0.0815 -0.51846,0.2378 -0.0951,0.0286 -0.19978,0.0337 -0.29629,0.0595 -0.12609,0.0339 -0.2459,0.0815 -0.37028,0.1188 -0.33189,0.0999 -0.12944,0.0253 -0.51843,0.1188 -0.22439,0.054 -0.43934,0.1327 -0.66654,0.17835 -0.0248,0.005 -0.0495,0 -0.0741,0 -0.0495,0 -0.0986,0 -0.14805,0 -0.1234,0 -0.24682,0 -0.3703,0 -0.074,0 -0.14805,0 -0.22222,0 -0.0248,0 -0.0741,0.0198 -0.0741,0 0,-0.0199 0.0495,0 0.0741,0 0.0495,0 0.0986,0 0.14804,0 0.43611,0 0.0194,0.0101 0.66652,-0.0595 0.22161,-0.0238 0.44449,-0.0385 0.66651,-0.0594 0.19763,-0.0186 0.39396,-0.0481 0.59247,-0.0594 0.2649,-0.0151 0.54659,0 0.81467,0 0.0248,0 0.0518,-0.008 0.0741,0 0.0753,0.0303 0.11804,0.13001 0.14804,0.17832 0.0248,0.0396 0.0495,0.0792 0.0741,0.11881 0.0248,0.0396 0.0607,0.0761 0.0741,0.11898 0.0134,0.0385 0,0.0792 0,0.1188 0,0.15846 0,0.31702 0,0.47555 0,0.0609 0.0151,0.42643 0,0.47557 -0.053,0.16984 -0.16582,0.15562 -0.37028,0.23776 -0.0986,0.0396 -0.19546,0.0828 -0.29631,0.11882 -0.12139,0.0433 -0.24806,0.0768 -0.37029,0.1188 -0.24402,0.084 -0.0857,0.0709 -0.44436,0.1188 -0.0486,0.007 -0.0998,-0.008 -0.14805,0 -0.0766,0.0116 -0.14503,0.0505 -0.22224,0.0594 -0.0977,0.0116 -0.19742,0 -0.29629,0 -0.14805,0 -0.29631,0 -0.44434,0 -0.5184,0 -1.03683,0 -1.55523,0 -0.19763,0 -0.395,0 -0.5925,0 -0.0387,0 -0.27667,0.008 -0.29629,0 -0.0312,-0.0116 -0.0495,-0.0396 -0.0741,-0.0594"
       style="fill:none;fill-rule:evenodd;stroke:#000000;stroke-width:0.74312919px;stroke-linecap:butt;stroke-linejoin:miter;stroke-opacity:1" />
    <path
       style="fill:none;fill-rule:evenodd;stroke:#000000;stroke-width:1.25358319;stroke-linecap:butt;stroke-linejoin:miter;stroke-miterlimit:4;stroke-dasharray:none;stroke-opacity:1"
       d="m 378.15472,350.06177 c 0.15249,-0.0483 0.33577,0.0363 0.49106,0 0.08,-0.0187 0.13725,-0.069 0.21045,-0.0982 0.0908,-0.0363 0.19238,-0.059 0.28061,-0.0982 0.44926,-0.20013 0.40925,-0.18826 0.70151,-0.39284 0.11692,-0.0818 0.23384,-0.16367 0.35076,-0.2455 0.1403,-0.0982 0.3085,-0.18017 0.42092,-0.29462 0.18549,-0.18885 0.39897,-0.54073 0.49106,-0.78565 0.0794,-0.21117 0.14277,-0.42516 0.21045,-0.63833 0.0258,-0.0815 0.0635,-0.16219 0.0701,-0.24551 0.0168,-0.21245 0,-0.42556 0,-0.63834 0,-0.32735 0,-0.6547 0,-0.98205"
       id="path6364"
       inkscape:connector-curvature="0" />
    <path
       style="fill:none;fill-rule:evenodd;stroke:#000000;stroke-width:1.24977601;stroke-linecap:butt;stroke-linejoin:miter;stroke-miterlimit:4;stroke-dasharray:3.74932819, 3.74932819;stroke-dashoffset:0;stroke-opacity:1"
       d="M 258.81973,235.18814 398.21071,369.80863"
       id="path5873"
       inkscape:connector-curvature="0" />
    <text
       xml:space="preserve"
       style="font-style:normal;font-weight:normal;font-size:8.97743034px;line-height:125%;font-family:sans-serif;letter-spacing:0px;word-spacing:0px;fill:#000000;fill-opacity:1;stroke:none;stroke-width:1px;stroke-linecap:butt;stroke-linejoin:miter;stroke-opacity:1"
       x="590.02509"
       y="209.33943"
       id="text5879"
       sodipodi:linespacing="125%"
       transform="matrix(0.86996472,0.24035655,-0.22943694,1.0860824,0,0)"><tspan
         sodipodi:role="line"
         id="tspan5881"
         x="590.02509"
         y="209.33943">laser</tspan></text>
    <path
       style="fill:none;fill-rule:evenodd;stroke:#000000;stroke-width:0.68483067;stroke-linecap:butt;stroke-linejoin:miter;stroke-miterlimit:4;stroke-dasharray:none;stroke-opacity:1"
       d="m 386.14534,347.71654 c -0.03,0.22888 0.0233,0.478 0,0.70863 -0.0306,0.30299 -0.12218,0.56167 -0.20447,0.86047 -0.0511,0.1856 -0.0895,0.37509 -0.15336,0.55678 -0.0943,0.33695 -0.29203,0.63371 -0.40894,0.96171 -0.0592,0.16611 -0.0889,0.34199 -0.15335,0.50616 -0.16455,0.41898 -0.17278,0.34622 -0.40895,0.65801 -0.2536,0.33482 0.107,-0.0553 -0.35782,0.40493 -0.0341,0.0338 -0.0621,0.0748 -0.10223,0.10124 -0.11685,0.0771 -0.39243,0.17895 -0.51118,0.20246 -0.0668,0.0132 -0.13684,-0.008 -0.20448,0 -0.0697,0.009 -0.13464,0.0429 -0.20447,0.0506 -0.13547,0.0149 -0.27262,0 -0.40894,0 -0.11928,0 -0.23855,0 -0.35782,0 -0.0341,0 -0.0699,0.0107 -0.10224,0 -0.0229,-0.008 -0.0283,-0.0431 -0.0511,-0.0506 -0.0323,-0.0107 -0.0718,0.0151 -0.10223,0 -0.0785,-0.0389 -0.16113,-0.19586 -0.20447,-0.25308 -0.17526,-0.23138 0.18924,0.39668 -0.20447,-0.25308 -0.0588,-0.0971 -0.10224,-0.20247 -0.15336,-0.3037 -0.017,-0.0337 -0.0406,-0.065 -0.0511,-0.10123 -0.0239,-0.0827 -0.0341,-0.16872 -0.0511,-0.25308 -0.017,-0.0844 -0.0403,-0.16772 -0.0511,-0.25308 -0.006,-0.0502 0,-0.10124 0,-0.15185 0,-0.11811 0,-0.23621 0,-0.35432 0,-0.0858 -0.0113,-0.42822 0,-0.50616 0.008,-0.0528 0.0363,-0.10055 0.0511,-0.15185 0.0193,-0.0669 0.0289,-0.13647 0.0511,-0.20246 0.0509,-0.15121 0.19829,-0.4911 0.30671,-0.6074 0.13917,-0.14929 0.29872,-0.27941 0.46006,-0.40493 0.0781,-0.0608 0.16427,-0.11309 0.25559,-0.15185 0.0157,-0.007 0.32657,0 0.35783,0 0.0434,0 0.27279,-0.008 0.3067,0 0.037,0.009 0.0682,0.0337 0.10224,0.0506 0.0341,0.0169 0.0705,0.0297 0.10223,0.0506 0.02,0.0132 0.0296,0.0399 0.0511,0.0506 0.1259,0.0623 -0.0462,-0.14693 0.15335,0.0506 0.0121,0.0119 0,0.0337 0,0.0506 0.017,0.0169 0.0311,0.0374 0.0511,0.0506 0.0317,0.0209 0.0753,0.0239 0.10224,0.0506 0.0121,0.0119 -0.0121,0.0387 0,0.0506 0.0121,0.012 0.0391,-0.0119 0.0511,0 0.027,0.0267 0.0341,0.0675 0.0511,0.10124 0.017,0.0337 0.0391,0.0654 0.0511,0.10123 0.005,0.016 -0.008,0.0355 0,0.0506 0.0215,0.0427 0.0755,0.0615 0.10224,0.10123 0.0211,0.0314 0.03,0.0698 0.0511,0.10123 0.0134,0.0198 0.0378,0.0308 0.0511,0.0506 0.0423,0.0628 0.063,0.13777 0.10224,0.20247 0.0437,0.0722 0.12414,0.16631 0.15335,0.25308 0.0108,0.032 -0.0153,0.071 0,0.10123 0.0108,0.0213 0.0367,0.0315 0.0511,0.0506 0.0368,0.0487 0.0654,0.10318 0.10223,0.15185 0.0145,0.0191 0.0435,0.028 0.0511,0.0506 0.0108,0.032 -0.008,0.0685 0,0.10123 0.009,0.0366 0.0341,0.0675 0.0511,0.10123 0.0341,0.0675 0.063,0.13776 0.10223,0.20247 0.0124,0.0204 0.0387,0.0301 0.0511,0.0506 0.0392,0.0647 0.0682,0.13498 0.10224,0.20247 0.017,0.0337 0.0267,0.0722 0.0511,0.10123 0.0617,0.0733 0.14425,0.12794 0.20447,0.20247 0.68411,0.84675 0.007,0.0362 0.25559,0.40492 0.0473,0.0702 0.10223,0.13498 0.15335,0.20247 0.0511,0.0675 0.10609,0.13227 0.15336,0.20247 0.006,0.009 0.099,0.19922 0.10223,0.20246 0.0121,0.012 0.0391,-0.0119 0.0511,0 0.0121,0.012 0,0.0338 0,0.0506 0,0.0169 0,0.0337 0,0.0506"
       id="path6368"
       inkscape:connector-curvature="0" />
    <path
       inkscape:connector-curvature="0"
       id="path7464"
       d="m 339.56352,343.02192 30.51161,0"
       style="fill:none;fill-rule:evenodd;stroke:#000000;stroke-width:0.78020549;stroke-linecap:butt;stroke-linejoin:miter;stroke-opacity:1;marker-start:url(#marker7466);stroke-miterlimit:4;stroke-dasharray:2.34061646,2.34061646;stroke-dashoffset:0" />
    <text
       sodipodi:linespacing="125%"
       id="text7863"
       y="341.3905"
       x="336.47003"
       style="font-style:normal;font-weight:normal;font-size:11.70308208px;line-height:125%;font-family:sans-serif;letter-spacing:0px;word-spacing:0px;fill:#000000;fill-opacity:1;stroke:none;stroke-width:1px;stroke-linecap:butt;stroke-linejoin:miter;stroke-opacity:1"
       xml:space="preserve"><tspan
         y="341.3905"
         x="336.47003"
         id="tspan7865"
         sodipodi:role="line">z'</tspan></text>
  </g>
</svg>
